<?xml version="1.0" encoding="UTF-8"?>
<svg id="uuid-b553fc89-63d4-4535-8a96-0b2589108d5d" data-name="Layer 2" xmlns="http://www.w3.org/2000/svg" viewBox="0 0 1816.79 930.67">
  <g id="uuid-04905a7e-5660-44ff-ac26-7ce23a5eda29" data-name="Layer 1">
    <polygon points="681.14 3.9 757.65 562.3 835.11 3.9 990.06 3.9 843.74 924.67 678.1 924.25 566.15 266.04 566.15 926.76 399.51 926.76 399.51 3.9 681.14 3.9" style="fill: #ecb021;"/>
    <polygon points="929.68 926.76 1071 3.91 1384.21 3.84 1539.73 926.76 1365.29 926.76 1229.27 161.71 1221.07 161.78 1108.99 926.76 929.68 926.76" style="fill: #ecb021;"/>
    <path d="M308.58,0v930.66c-150.81,1.71-285.48-113.21-305.86-262.77-15.29-112.26,36.65-236.64,87.06-334.63C149.93,216.33,224.63,106.29,304.16,1.91l4.42-1.91ZM140,518.45c-20,40.46-41.83,85.56-46.78,131.08-3.74,34.4,7.65,78.2,31.2,104.23,14.24,15.74,44.67,25.66,60.36,6.83,17.72-21.27-7.12-42.58-17.92-59.99-28.03-45.17-38.06-93.45-31.62-146.44,1.32-10.83,4.34-21.87,5.43-32.59.11-1.07,1.15-3.31-.68-3.11Z" style="fill: #ecb021;"/>
    <path d="M1797.3,2.92l-78.03,435.13,97.25,483.62.27,5.09h-186.13l-79.99-469.21L1616.25,4.59c.17-.57.84-1.67,1.25-1.67h179.8Z" style="fill: #ecb021;"/>
  </g>
</svg>