<?xml version="1.0" encoding="UTF-8"?>
<svg id="uuid-c948403d-4b20-466c-80cf-44931156dff5" data-name="Layer 2" xmlns="http://www.w3.org/2000/svg" viewBox="0 0 547.81 827.53">
  <g id="uuid-9ec749d4-91f1-48a8-be72-c99d6e5edbb9" data-name="Layer 1">
    <path d="M273.51,827.53c-134.98,0-250.65-99.11-270.5-231.46-7.07-47.13-1.08-93.04,11.6-138.43,19.43-69.58,50.17-134.32,84.92-197.28C149.21,170.34,206.59,85.4,269.08,3.82c3.94-5.14,5.74-5.07,9.63.03,75.35,98.66,143.88,201.66,199.07,313.1,27.48,55.48,50.94,112.56,63.23,173.6,19.42,96.45-2.43,181.99-70.44,253.76-44.79,47.27-100.71,74.02-165.58,81.65-10.48,1.23-20.96,1.61-31.48,1.56ZM149.32,330.81c-.55-.39-1.09-.77-1.64-1.16-.41.95-.75,1.92-1.23,2.83-29.27,55.49-54.19,112.64-66.16,174.67-11.56,59.92,2.03,114.46,36.4,164.11,12.2,17.62,29.87,27.79,50.76,32.08,24.5,5.03,48.24-9.06,53.13-31.49,3.13-14.32-3.11-26.08-11.33-36.97-17.51-23.2-32.7-47.76-44.99-74.13-29.13-62.5-32.92-127.83-21.9-194.8,1.94-11.78,4.62-23.44,6.95-35.16Z" style="fill: #edb021;"/>
  </g>
</svg>